# xmcd
#
# Track frame offsets:
#	150
#	14444
#	28362
#	46267
#	60730
#	76853
#	93313
#	106511
#	122699
#	137940
#	154436
#	169709
#	184705
#	201839
#	216402
#	236875
#
# Disc length: 3410 seconds
#
# Revision: 0
# Processed by: cddbd v1.5.2PL0 Copyright (c) Steve Scherf et al.
# Submitted via: EZCDAudioConverter 2.4.0.1
#
DISCID=df0d5010
DTITLE=Juanita du Plessis - Nashville
DYEAR=2014
DGENRE=Country
TTITLE0=Try me
TTITLE1=As vandag my laaste dag is
TTITLE2=The house that built me
TTITLE3=Chicken Fried (Met Ruan en Franja)
TTITLE4=You've got to talk to me
TTITLE5=If I had you
TTITLE6=It happens
TTITLE7=That's the beat of a heart
TTITLE8=Little things
TTITLE9=Never alone
TTITLE10=Independence Day
TTITLE11=Give into me (Met Theuns Jordaan)
TTITLE12=Livin' on love
TTITLE13=My antwoord
TTITLE14=Shania Twain Medley
TTITLE15=The story (Acoustic Version)
EXTD=
EXTT0=
EXTT1=
EXTT2=
EXTT3=
EXTT4=
EXTT5=
EXTT6=
EXTT7=
EXTT8=
EXTT9=
EXTT10=
EXTT11=
EXTT12=
EXTT13=
EXTT14=
EXTT15=
PLAYORDER=
